<svg width="946" height="946" viewBox="0 0 946 946" fill="none" xmlns="http://www.w3.org/2000/svg">
<rect width="946" height="946" fill="#1E1E1E"/>
<rect x="6.5" y="6.5" width="933" height="933" rx="62.5" fill="url(#paint0_radial_0_1)" stroke="url(#paint1_linear_0_1)" stroke-width="13"/>
<text fill="url(#paint2_linear_0_1)" stroke="black" stroke-opacity="0.15" stroke-width="10" xml:space="preserve" style="white-space: pre" font-family="Die Nasty" font-size="173.253" letter-spacing="0em"><tspan x="92.0711" y="211.584">XSTREAM</tspan></text>
<text fill="url(#paint3_linear_0_1)" xml:space="preserve" style="white-space: pre" font-family="Die Nasty" font-size="71.7616" letter-spacing="0em"><tspan x="298.212" y="321.336">exclusive</tspan></text>
<text fill="url(#paint4_linear_0_1)" xml:space="preserve" style="white-space: pre" font-family="Die Nasty" font-size="130.721" letter-spacing="0em" text-anchor="middle"><tspan x="50%" y="586.475">Venmus</tspan></text>
<text fill="url(#paint5_linear_0_1)" xml:space="preserve" style="white-space: pre" font-family="Die Nasty" font-size="45.4997" letter-spacing="0em"><tspan x="732" y="796.198">Total</tspan></text>
<text fill="url(#paint6_linear_0_1)" xml:space="preserve" style="white-space: pre" font-family="Circular Spotify Tx T" font-size="62.4718" font-weight="900" letter-spacing="0em"><tspan x="755.467" y="871.46">50</tspan></text>
<mask id="path-7-outside-1_0_1" maskUnits="userSpaceOnUse" x="91" y="737" width="163" height="163" fill="black">
<rect fill="white" x="91" y="737" width="163" height="163"/>
<path d="M93 748.678C93 743.333 97.3331 739 102.678 739H242.322C247.667 739 252 743.333 252 748.678V888.322C252 893.667 247.667 898 242.322 898H102.678C97.3331 898 93 893.667 93 888.322V748.678Z"/>
</mask>
<path d="M93 748.678C93 743.333 97.3331 739 102.678 739H242.322C247.667 739 252 743.333 252 748.678V888.322C252 893.667 247.667 898 242.322 898H102.678C97.3331 898 93 893.667 93 888.322V748.678Z" fill="url(#paint7_radial_0_1)"/>
<path d="M93 748.678C93 743.333 97.3331 739 102.678 739H242.322C247.667 739 252 743.333 252 748.678V888.322C252 893.667 247.667 898 242.322 898H102.678C97.3331 898 93 893.667 93 888.322V748.678Z" stroke="url(#paint8_linear_0_1)" stroke-width="3.45652" mask="url(#path-7-outside-1_0_1)"/>
<text fill="#5E0000" xml:space="preserve" style="white-space: pre" font-family="Die Nasty" font-size="130.376" letter-spacing="0em"><tspan x="132.404" y="867.095">X</tspan></text>
<text fill="url(#paint9_linear_0_1)" xml:space="preserve" style="white-space: pre" font-family="Die Nasty" font-size="22.8603" letter-spacing="0em"><tspan x="122.38" y="823.28">XSTREAM</tspan></text>
<defs>
<radialGradient id="paint0_radial_0_1" cx="0" cy="0" r="1" gradientUnits="userSpaceOnUse" gradientTransform="translate(473 473) rotate(90) scale(1426)">
<stop/>
<stop offset="1" stop-color="#411515"/>
</radialGradient>
<linearGradient id="paint1_linear_0_1" x1="-161" y1="-211" x2="1057" y2="1145" gradientUnits="userSpaceOnUse">
<stop/>
<stop offset="0.513804" stop-color="#DC0000" stop-opacity="0.8"/>
<stop offset="1"/>
</linearGradient>
<linearGradient id="paint2_linear_0_1" x1="472.5" y1="44" x2="478.501" y2="333.5" gradientUnits="userSpaceOnUse">
<stop stop-color="#FF0000"/>
<stop offset="1"/>
</linearGradient>
<linearGradient id="paint3_linear_0_1" x1="472.5" y1="252" x2="472.256" y2="405.61" gradientUnits="userSpaceOnUse">
<stop offset="0.221875" stop-color="#B00000"/>
<stop offset="0.857292"/>
</linearGradient>
<linearGradient id="paint4_linear_0_1" x1="472.5" y1="460" x2="472.414" y2="699.817" gradientUnits="userSpaceOnUse">
<stop stop-color="#F3F3F3"/>
<stop offset="1"/>
</linearGradient>
<linearGradient id="paint5_linear_0_1" x1="795" y1="752" x2="794.957" y2="836.012" gradientUnits="userSpaceOnUse">
<stop stop-color="#F3F3F3"/>
<stop offset="1"/>
</linearGradient>
<linearGradient id="paint6_linear_0_1" x1="795" y1="807" x2="794.825" y2="941.42" gradientUnits="userSpaceOnUse">
<stop stop-color="#F3F3F3"/>
<stop offset="1"/>
</linearGradient>
<radialGradient id="paint7_radial_0_1" cx="0" cy="0" r="1" gradientUnits="userSpaceOnUse" gradientTransform="translate(172.5 818.5) rotate(90) scale(79.5)">
<stop stop-color="#111111" stop-opacity="0"/>
<stop offset="1" stop-color="#111111"/>
</radialGradient>
<linearGradient id="paint8_linear_0_1" x1="96.4565" y1="730.704" x2="211.04" y2="855.312" gradientUnits="userSpaceOnUse">
<stop stop-color="#DC0000" stop-opacity="0.8"/>
<stop offset="1"/>
</linearGradient>
<linearGradient id="paint9_linear_0_1" x1="172.88" y1="801.39" x2="172.797" y2="835.777" gradientUnits="userSpaceOnUse">
<stop stop-color="white"/>
<stop offset="1" stop-color="#605B5B"/>
</linearGradient>
</defs>
</svg>
